PathFileType	3	(X/Y/Z)	F:\ViconData\AntennenMessung\Messung1\Session1\ID11.trc
DataRate	CameraRate	NumFrames	NumMarkers	Units	OrigDataRate	OrigDataStartFrame	OrigNumFrames
120.0	120.0	5	70	mm	120.0	1	1286	
Frame#	Time	Ashort			Along			Atop			A4			Bshort			Blong			Btop			B4			Cshort			Clong			Ctop			C4			Dshort			Dlong			Dtop			D4			Eshort			Elong			Etop			E4			Fshort			Flong			Ftop			F4			Gshort			Glong			Gtop			G4			Hshort			Hlong			Htop			H4			I1			I2			I3			I4			I5			WandAshort			WandAlong			WandAtop			WandA4			WandA15			WandBshort			WandB4			WandB5			WandBtop			WandBlong			WandCshort			WandClong			WandCtop			WandC4			WandC5			Acenter			Aantenna			Bcenter			Bantenna			Ccenter			Cantenna			Dcenter			Dantenna			Ecenter			Eantenna			Fcenter			Fantenna			Gcenter			Gantenna			Hcenter			Hantenna			Icenter			Iantenna			
		X1	Y1	Z1	X2	Y2	Z2	X3	Y3	Z3	X4	Y4	Z4	X5	Y5	Z5	X6	Y6	Z6	X7	Y7	Z7	X8	Y8	Z8	X9	Y9	Z9	X10	Y10	Z10	X11	Y11	Z11	X12	Y12	Z12	X13	Y13	Z13	X14	Y14	Z14	X15	Y15	Z15	X16	Y16	Z16	X17	Y17	Z17	X18	Y18	Z18	X19	Y19	Z19	X20	Y20	Z20	X21	Y21	Z21	X22	Y22	Z22	X23	Y23	Z23	X24	Y24	Z24	X25	Y25	Z25	X26	Y26	Z26	X27	Y27	Z27	X28	Y28	Z28	X29	Y29	Z29	X30	Y30	Z30	X31	Y31	Z31	X32	Y32	Z32	X33	Y33	Z33	X34	Y34	Z34	X35	Y35	Z35	X36	Y36	Z36	X37	Y37	Z37	X38	Y38	Z38	X39	Y39	Z39	X40	Y40	Z40	X41	Y41	Z41	X42	Y42	Z42	X43	Y43	Z43	X44	Y44	Z44	X45	Y45	Z45	X46	Y46	Z46	X47	Y47	Z47	X48	Y48	Z48	X49	Y49	Z49	X50	Y50	Z50	X51	Y51	Z51	X52	Y52	Z52	X53	Y53	Z53	X54	Y54	Z54	X55	Y55	Z55	X56	Y56	Z56	X57	Y57	Z57	X58	Y58	Z58	X59	Y59	Z59	X60	Y60	Z60	X61	Y61	Z61	X62	Y62	Z62	X63	Y63	Z63	X64	Y64	Z64	X65	Y65	Z65	X66	Y66	Z66	X67	Y67	Z67	X68	Y68	Z68	X69	Y69	Z69	X70	Y70	Z70	
1	0	-1038.2188	214.47633	-1644.1628	-1109.3149	203.94618	-1599.4318	-1063.6738	172.52127	-1625.6078	-1054.1555	262.11304	-1634.9857	-1353.0496	234.75026	1003.8541	-1281.3828	227.10503	1052.5293	-1322.8007	194.02072	1020.7976	-1284.6973	287.81223	1052.7865	814.099	187.66759	1209.588	893.01935	179.39648	1178.5651	844.1817	145.66287	1198.3108	860.52527	292.54834	1167.3444	1115.7748	209.46234	-1401.5328	1056.2144	194.14925	-1460.3196	1095.0109	162.24692	-1423.8525	1069.8787	238.55798	-1425.9673	-1204.4902	1685.8798	-1563.3064	-1129.1018	1688.2372	-1606.0419	-1173.1591	1724.4484	-1581.9808	-1133.5374	1580.9637	-1603.5464	-1239.7808	1699.3888	1119.52	-1309.4043	1698.8586	1071.9182	-1270.465	1736.3668	1096.8848	-1245.479	1592.7191	1110.6794	988.92517	1664.2008	1162.287	955.39508	1701.1158	1182.3665	922.59113	1662.1049	1214.9651	939.76056	1659.3893	1159.9753	999.12134	1668.464	-1579.4818	1058.9551	1670.1823	-1518.7218	1025.026	1707.9731	-1551.1687	1059.2466	1672.1398	-1585.4913	-26.346022	1173.0984	-954.35028	-112.06815	1172.6161	-963.18536	-64.715324	1209.5922	-959.31812	-60.558716	1170.6598	-989.7215	-69.101517	1175.1248	-910.57666																																														-1068.7898	209.94838	-1624.9285	-1074.0708	248.58281	-1624.2274	-1321.7448	231.41074	1025.1158	-1320.6511	270.13797	1029.5885	847.49042	184.16806	1196.462	850.82562	222.98047	1194.5985	1088.8506	202.54013	-1428.1072	1082.9885	240.88387	-1432.1558	-1171.8783	1686.8994	-1581.7931	-1170.5492	1647.9225	-1581.5981	-1271.0437	1699.1505	1098.1455	-1271.6497	1660.1777	1099.4658	951.74774	1705.1313	1184.5507	970.63037	1732.9965	1164.8534	1026.577	1669.2523	-1551.6011	1028.1381	1630.286	-1552.0363	-64.614288	1172.8831	-958.29437	-64.507004	1133.8984	-957.20728
2	0.0083333333	-1038.1744	214.3446	-1644.2622	-1109.338	203.9381	-1599.4207	-1063.6698	172.55103	-1625.6097	-1054.1674	262.09213	-1634.9717	-1353.0222	234.97491	1003.8886	-1281.451	227.11397	1052.5214	-1322.8428	193.99425	1020.8904	-1284.6661	287.84625	1052.7301	814.01648	187.63145	1209.5366	892.91406	179.49854	1178.5927	844.16571	145.69458	1198.3044	860.58167	292.58112	1167.4142	1115.8539	209.86374	-1401.7623	1056.2162	194.16754	-1460.3405	1095.0038	162.25993	-1423.875	1069.9473	238.66043	-1425.9189	-1204.5052	1685.8892	-1563.3053	-1129.1034	1688.236	-1606.0432	-1173.153	1724.4338	-1581.9863	-1133.5414	1580.9733	-1603.5884	-1239.8057	1699.4355	1119.5422	-1309.4291	1698.8857	1071.9263	-1270.6481	1736.6539	1096.9808	-1245.527	1592.8309	1110.7034	988.97882	1664.2411	1162.2885	955.89417	1702.0891	1181.0698	922.49969	1662.1005	1214.9669	939.7674	1659.38	1159.9729	999.12787	1668.4885	-1579.4753	1058.9696	1670.1937	-1518.7158	1025.0238	1707.9646	-1551.1792	1059.2393	1672.1355	-1585.4891	-26.33712	1173.1139	-954.36145	-112.07177	1172.6195	-963.19678	-64.725319	1209.5999	-959.3158	-60.556992	1170.6674	-989.70404	-69.081833	1175.1183	-910.58752																																														-1068.7434	209.87434	-1624.9999	-1073.9962	248.51385	-1624.3687	-1321.6517	231.52937	1025.2048	-1320.4231	270.25504	1029.6561	847.40344	184.18985	1196.4421	850.6684	223.00755	1194.5642	1088.7656	202.73431	-1428.3693	1082.8605	241.04915	-1432.6239	-1171.8782	1686.9045	-1581.7982	-1170.5543	1647.9275	-1581.603	-1271.1306	1699.1882	1098.1188	-1271.6326	1660.2095	1099.3029	953.2749	1705.0853	1182.5568	972.63037	1732.1199	1162.173	1026.5681	1669.2703	-1551.6141	1028.1234	1630.3038	-1552.0522	-64.617615	1172.8931	-958.3064	-64.503227	1133.9081	-957.23431
3	0.016666667	-1038.2094	214.50847	-1644.1625	-1109.326	203.94841	-1599.422	-1063.7078	172.51007	-1625.5862	-1054.1636	262.10446	-1634.9847	-1352.9562	234.79027	1003.8428	-1281.4016	227.22189	1052.4082	-1322.8444	193.99173	1020.8465	-1284.7014	287.8273	1052.7847	814.03778	187.61781	1209.5881	892.914	179.58131	1178.6084	844.10864	145.75444	1198.2817	860.58661	292.63504	1167.3275	1115.8467	209.87286	-1401.7678	1056.2119	194.17329	-1460.3347	1095.0243	162.23703	-1423.86	1069.8826	238.59239	-1425.9528	-1204.6106	1685.9938	-1563.0631	-1129.1553	1688.4047	-1606.8002	-1173.1448	1724.4402	-1581.9862	-1133.5532	1580.9934	-1603.6085	-1239.7988	1699.437	1119.5405	-1309.4415	1698.9218	1071.9355	-1269.0583	1737.3433	1094.0016	-1245.4119	1592.6016	1110.641	988.89081	1664.1542	1162.3057	957.44391	1700.1749	1183.8389	922.53534	1662.1266	1215.0295	939.79266	1659.3984	1159.9757	999.13373	1668.4803	-1579.4753	1058.9691	1670.1853	-1518.7216	1025.036	1707.9678	-1551.171	1059.25	1672.1318	-1585.5005	-26.348129	1173.1134	-954.47876	-111.99743	1172.5438	-963.11707	-64.793839	1209.7654	-959.27631	-60.560238	1170.6666	-989.71802	-69.101181	1175.1278	-910.58087																																														-1068.8345	209.96095	-1624.8958	-1074.123	248.59415	-1624.1836	-1321.7247	231.48689	1025.04	-1320.568	270.22818	1029.373	847.33282	184.22543	1196.511	850.58661	223.04837	1194.7241	1088.7745	202.74579	-1428.3551	1082.8633	241.06004	-1432.6067	-1171.9535	1687.0371	-1581.9926	-1170.7119	1648.0569	-1581.9991	-1271.4462	1699.2028	1097.9076	-1273.8705	1660.4807	1101.8733	952.88275	1705.3993	1186.9619	972.66003	1733.5999	1168.6703	1026.5811	1669.2625	-1551.6067	1028.1366	1630.296	-1552.0452	-64.642784	1172.8588	-958.34094	-64.483215	1133.8716	-957.35297
4	0.025	-1038.2386	214.46423	-1644.1498	-1109.3212	203.94228	-1599.4164	-1063.7018	172.50822	-1625.6044	-1054.1597	262.11023	-1634.9805	-1352.9835	235.03694	1003.8032	-1281.387	227.03688	1052.5341	-1322.8843	193.99945	1020.842	-1284.7124	287.8201	1052.7627	814.01697	187.66757	1209.6433	892.45776	178.50423	1179.3086	844.14893	145.74103	1198.3124	860.60876	292.61346	1167.3711	1115.7635	209.46083	-1401.5392	1056.2062	194.16241	-1460.3234	1095.0146	162.2867	-1423.8619	1069.8995	238.56685	-1425.9674	-1204.5052	1685.8894	-1563.3055	-1129.1093	1688.2573	-1606.0558	-1173.1425	1724.4221	-1581.9806	-1133.5466	1580.9716	-1603.5792	-1239.7831	1699.4113	1119.524	-1309.3949	1698.8468	1071.9135	-1270.4523	1736.3636	1096.8779	-1245.5537	1592.8116	1110.7205	988.93341	1664.202	1162.287	955.90222	1702.2235	1181.1608	922.67157	1662.0411	1215.0038	939.75183	1659.3667	1159.9882	999.13489	1668.4774	-1579.455	1058.9652	1670.1824	-1518.7216	1025.0223	1707.9669	-1551.1786	1059.2502	1672.1334	-1585.4935	-26.355547	1172.9597	-954.09576	-111.98332	1172.4969	-963.09882	-64.723869	1209.6031	-959.31531	-60.550552	1170.666	-989.70575	-68.891357	1175.2422	-910.44269																																														-1068.807	209.93935	-1624.9125	-1074.0765	248.57509	-1624.1984	-1321.6219	231.53264	1025.1489	-1320.3193	270.25674	1029.5925	847.89905	183.70952	1196.5404	851.72827	222.47887	1194.731	1088.8545	202.54872	-1428.0988	1082.9877	240.8932	-1432.1339	-1171.8682	1686.9143	-1581.8109	-1170.5442	1647.9371	-1581.6346	-1271.0248	1699.1578	1098.1564	-1271.6246	1660.1854	1099.4954	953.52045	1704.965	1182.5217	972.91229	1731.9473	1162.1031	1026.5646	1669.2589	-1551.6112	1028.1172	1630.2922	-1552.0466	-64.650162	1172.7526	-958.12207	-64.572197	1133.7731	-956.85999
5	0.033333333	-1038.2161	214.46532	-1644.163	-1109.3512	203.90331	-1599.4232	-1063.755	172.51158	-1625.5679	-1054.163	262.11478	-1634.9841	-1352.9806	234.75449	1003.8564	-1281.4088	227.21452	1052.4058	-1322.9125	193.94604	1020.903	-1284.6975	287.83862	1052.7551	814.01605	187.66817	1209.6151	892.49951	178.65634	1179.1973	844.06262	145.69316	1198.3528	860.54297	292.51041	1167.4856	1115.7728	209.44316	-1401.531	1056.2128	194.17233	-1460.3384	1095.0494	162.30862	-1423.874	1069.9021	238.59659	-1425.9501	-1204.4949	1685.8827	-1563.3003	-1129.0988	1688.2365	-1606.0398	-1173.1306	1724.4299	-1581.9962	-1133.5254	1580.9556	-1603.5496	-1239.7788	1699.3965	1119.5247	-1309.4045	1698.8705	1071.9236	-1270.443	1736.3308	1096.8699	-1245.4886	1592.7272	1110.6909	988.85974	1664.1326	1162.2938	957.41504	1700.1927	1183.9058	922.59344	1662.0743	1215.0146	939.77313	1659.4041	1159.9598	999.13104	1668.4965	-1579.469	1058.9635	1670.1864	-1518.715	1025.0229	1707.9695	-1551.1702	1059.2505	1672.1404	-1585.5007	-26.361681	1173.094	-954.3512	-112.00548	1172.5275	-963.08667	-64.730217	1209.5973	-959.30951	-60.574226	1170.6569	-989.7132	-68.901291	1175.249	-910.4389																																														-1068.8756	209.91302	-1624.8799	-1074.1649	248.54617	-1624.1692	-1321.7615	231.46559	1025.0332	-1320.5729	270.21341	1029.2987	847.73737	183.79611	1196.5458	851.47717	222.5728	1194.7067	1088.8844	202.54913	-1428.0795	1083.0098	240.89526	-1432.0872	-1171.8507	1686.9017	-1581.8049	-1170.5212	1647.9249	-1581.6066	-1271.0393	1699.1603	1098.1526	-1271.6646	1660.1885	1099.4978	952.93457	1705.3308	1186.985	972.71857	1733.5364	1168.7084	1026.5651	1669.2712	-1551.6124	1028.1178	1630.3047	-1552.0577	-64.595001	1172.8411	-958.25079	-64.451591	1133.8575	-957.12811
